<svg width="124" height="77" viewBox="0 0 724 137" fill="none" xmlns="http://www.w3.org/2000/svg">
<rect x="251" y="24" width="170" height="62" rx="31" fill="white" stroke="#6A35FF" stroke-width="14"/>
<rect x="251" y="24" width="84" height="62" rx="10" fill="white" stroke="#6A35FF" stroke-width="14"/>
<rect x="341" y="24" width="84" height="62" rx="10" fill="white" stroke="#6A35FF" stroke-width="14"/>
<path d="M3.552 55.368C3.552 66.216 7.392 75.432 14.976 82.92C22.656 90.408 31.968 94.152 42.816 94.152C53.664 94.152 62.976 90.408 70.56 82.824C78.24 75.24 82.08 65.928 82.08 55.08C82.08 44.232 78.24 35.112 70.656 27.72C63.072 20.328 53.856 16.584 43.008 16.584C32.16 16.584 22.848 20.328 15.072 27.912C7.392 35.4 3.552 44.52 3.552 55.368ZM28.608 40.488C32.448 36.36 37.152 34.248 42.816 34.248C48.48 34.248 53.184 36.36 57.024 40.488C60.864 44.616 62.784 49.608 62.784 55.272C62.784 60.936 60.864 65.928 57.024 70.152C53.184 74.28 48.48 76.392 42.816 76.392C37.152 76.392 32.448 74.28 28.608 70.152C24.768 65.928 22.848 60.936 22.848 55.272C22.848 49.608 24.768 44.616 28.608 40.488ZM92.0257 55.368C92.0257 66.504 95.7697 75.72 103.258 83.112C110.746 90.504 119.962 94.152 130.906 94.152C138.97 94.152 146.074 92.232 152.218 88.296C158.458 84.36 162.874 78.984 165.562 72.072L148.666 64.008C145.114 72.168 139.258 76.2 131.002 76.2C125.338 76.2 120.634 74.184 116.89 70.056C113.242 65.928 111.418 61.032 111.418 55.272C111.418 49.512 113.338 44.616 117.082 40.488C120.922 36.36 125.53 34.344 131.002 34.344C139.354 34.344 145.21 38.376 148.474 46.344L165.178 38.376C162.586 31.464 158.362 26.088 152.314 22.344C146.266 18.504 139.258 16.584 131.29 16.584C120.25 16.584 110.938 20.328 103.354 27.912C95.7697 35.496 92.0257 44.616 92.0257 55.368ZM192.206 93H211.118V35.016H232.334V17.832H170.894V35.016H192.206V93ZM444.643 17.832V93H495.139V75.72H463.555V17.832H444.643ZM560.737 70.536C560.737 64.392 558.529 59.592 554.209 56.136C549.889 52.584 542.977 49.416 533.377 46.632C525.409 44.328 523.201 42.12 523.201 38.952C523.201 35.208 526.561 32.616 531.265 32.616C537.313 32.616 541.537 35.592 544.033 41.544L559.489 33.096C555.265 23.112 545.569 16.584 531.745 16.584C524.161 16.584 517.729 18.792 512.353 23.208C507.073 27.528 504.385 33.192 504.385 40.008C504.385 52.584 513.025 59.4 529.921 64.008C538.849 66.408 541.633 68.328 541.633 71.688C541.633 75.528 537.985 77.928 531.937 77.928C524.737 77.928 519.745 74.856 516.961 68.712L501.313 76.776C506.209 88.296 516.385 94.056 531.841 94.056C540.961 94.056 548.065 91.848 553.153 87.432C558.241 83.016 560.737 77.352 560.737 70.536ZM582.671 94.056C585.839 94.056 588.431 93 590.639 90.792C592.847 88.584 593.903 85.992 593.903 83.016C593.903 79.848 592.847 77.16 590.639 74.952C588.431 72.744 585.839 71.592 582.671 71.592C579.599 71.592 577.007 72.744 574.799 74.952C572.591 77.16 571.535 79.848 571.535 83.016C571.535 85.992 572.591 88.584 574.799 90.792C577.007 93 579.599 94.056 582.671 94.056ZM627.542 17.832H608.534V93H627.542V17.832ZM641.69 55.368C641.69 66.216 645.53 75.432 653.114 82.92C660.794 90.408 670.106 94.152 680.954 94.152C691.802 94.152 701.114 90.408 708.698 82.824C716.378 75.24 720.218 65.928 720.218 55.08C720.218 44.232 716.378 35.112 708.794 27.72C701.21 20.328 691.994 16.584 681.146 16.584C670.298 16.584 660.986 20.328 653.21 27.912C645.53 35.4 641.69 44.52 641.69 55.368ZM666.746 40.488C670.586 36.36 675.29 34.248 680.954 34.248C686.618 34.248 691.322 36.36 695.162 40.488C699.002 44.616 700.922 49.608 700.922 55.272C700.922 60.936 699.002 65.928 695.162 70.152C691.322 74.28 686.618 76.392 680.954 76.392C675.29 76.392 670.586 74.28 666.746 70.152C662.906 65.928 660.986 60.936 660.986 55.272C660.986 49.608 662.906 44.616 666.746 40.488Z" fill="url(#paint0_linear_126_1555)"/>
<defs>
<linearGradient id="paint0_linear_126_1555" x1="362" y1="-3.18141e-05" x2="766" y2="182" gradientUnits="userSpaceOnUse">
<stop stop-color="#6A35FF"/>
<stop offset="1" stop-color="#B8C0FF"/>
</linearGradient>
</defs>
</svg>
